<svg data-v-423bf9ae="" xmlns="http://www.w3.org/2000/svg" viewBox="0 0 801 90" class="iconLeft"><!----><!----><!----><g data-v-423bf9ae="" id="b9642b21-b1e6-46f5-9916-2a26bdce2fa1" fill="black" transform="matrix(6.564551830291748,0,0,6.564551830291748,106.39018249511719,-7.778996467590332)"><path d="M6.23 6.39L6.23 8.52L5.56 8.52Q5.53 7.70 5.08 7.30Q4.62 6.90 3.82 6.90L3.82 6.90Q3.34 6.90 2.95 7.07Q2.57 7.25 2.31 7.57Q2.04 7.89 1.90 8.35Q1.76 8.82 1.76 9.40L1.76 9.40Q1.76 9.99 1.91 10.43Q2.05 10.87 2.32 11.20Q2.59 11.53 2.97 11.71Q3.36 11.89 3.83 11.89L3.83 11.89Q4.52 11.89 4.98 11.55Q5.44 11.22 5.63 10.55L5.63 10.55L6.43 10.68Q6.32 11.16 6.08 11.52Q5.84 11.89 5.50 12.11Q5.15 12.34 4.70 12.47Q4.25 12.61 3.71 12.61L3.71 12.61Q2.99 12.61 2.41 12.38Q1.83 12.15 1.42 11.75Q1.00 11.35 0.78 10.76Q0.55 10.17 0.55 9.45L0.55 9.45Q0.55 8.76 0.77 8.17Q0.99 7.58 1.39 7.14Q1.79 6.71 2.34 6.45Q2.89 6.19 3.56 6.19L3.56 6.19Q3.83 6.19 4.10 6.22Q4.37 6.25 4.61 6.34Q4.85 6.42 5.06 6.56Q5.27 6.71 5.43 6.92L5.43 6.92L5.61 6.38Q5.63 6.38 5.73 6.38Q5.82 6.38 5.92 6.38Q6.02 6.38 6.11 6.39Q6.21 6.39 6.23 6.39L6.23 6.39ZM10.72 6.19L10.72 6.19Q11.44 6.19 12.04 6.41Q12.64 6.64 13.07 7.06Q13.51 7.49 13.75 8.09Q13.99 8.69 13.99 9.41L13.99 9.41Q13.99 10.10 13.75 10.69Q13.51 11.29 13.08 11.72Q12.65 12.14 12.04 12.37Q11.44 12.61 10.72 12.61L10.72 12.61Q9.99 12.61 9.40 12.38Q8.80 12.15 8.37 11.72Q7.94 11.29 7.70 10.69Q7.46 10.10 7.46 9.41L7.46 9.41Q7.46 8.69 7.70 8.09Q7.94 7.49 8.37 7.06Q8.80 6.64 9.40 6.41Q10.00 6.19 10.72 6.19ZM10.72 6.90L10.72 6.90Q10.24 6.90 9.86 7.08Q9.47 7.25 9.20 7.57Q8.93 7.90 8.79 8.36Q8.65 8.83 8.65 9.40L8.65 9.40Q8.65 9.93 8.79 10.40Q8.94 10.87 9.21 11.20Q9.48 11.53 9.86 11.71Q10.25 11.89 10.72 11.89L10.72 11.89Q11.19 11.89 11.57 11.71Q11.96 11.53 12.23 11.20Q12.50 10.87 12.65 10.40Q12.80 9.93 12.80 9.40L12.80 9.40Q12.80 8.84 12.65 8.37Q12.50 7.90 12.23 7.57Q11.96 7.25 11.58 7.08Q11.19 6.90 10.72 6.90ZM16.98 3.60L16.98 11.38Q16.98 11.55 17.05 11.64Q17.11 11.74 17.24 11.79Q17.38 11.83 17.57 11.84Q17.77 11.85 18.03 11.85L18.03 11.85L18.03 12.46Q17.84 12.46 17.66 12.46Q17.47 12.46 17.28 12.46Q17.08 12.46 16.87 12.46Q16.66 12.46 16.41 12.45L16.41 12.45Q16.16 12.45 15.95 12.45Q15.74 12.46 15.54 12.46Q15.35 12.46 15.18 12.46Q15.00 12.46 14.81 12.46L14.81 12.46Q14.81 12.41 14.81 12.33Q14.81 12.24 14.81 12.16Q14.81 12.07 14.81 11.99Q14.81 11.91 14.81 11.85L14.81 11.85Q15.20 11.85 15.40 11.82Q15.61 11.79 15.71 11.72Q15.80 11.65 15.82 11.55Q15.84 11.44 15.84 11.30L15.84 11.30L15.84 4.59Q15.84 4.46 15.77 4.40Q15.71 4.33 15.58 4.30Q15.45 4.27 15.26 4.26Q15.08 4.25 14.84 4.25L14.84 4.25L14.84 3.63Q15.38 3.63 15.89 3.62Q16.39 3.62 16.98 3.60L16.98 3.60ZM25.23 3.60L25.23 11.59Q25.23 11.68 25.28 11.73Q25.32 11.79 25.43 11.81Q25.55 11.84 25.74 11.85Q25.94 11.85 26.24 11.85L26.24 11.85L26.24 12.46Q25.70 12.46 25.17 12.47Q24.63 12.48 24.14 12.49L24.14 12.49Q24.14 12.48 24.14 12.35Q24.14 12.21 24.14 12.03Q24.14 11.85 24.14 11.68Q24.14 11.50 24.13 11.42L24.13 11.42Q23.74 12.00 23.16 12.30Q22.57 12.61 21.81 12.61L21.81 12.61Q21.14 12.61 20.59 12.38Q20.04 12.15 19.65 11.73Q19.26 11.31 19.04 10.73Q18.83 10.14 18.83 9.42L18.83 9.42Q18.83 8.69 19.05 8.09Q19.26 7.49 19.66 7.08Q20.06 6.66 20.61 6.42Q21.16 6.19 21.83 6.19L21.83 6.19Q22.57 6.19 23.13 6.48Q23.70 6.77 24.07 7.30L24.07 7.30L24.08 4.51Q24.08 4.41 24.02 4.36Q23.97 4.31 23.83 4.28Q23.70 4.25 23.49 4.25Q23.28 4.25 22.98 4.25L22.98 4.25L22.98 3.62Q23.58 3.62 24.15 3.62Q24.73 3.61 25.23 3.60L25.23 3.60ZM22.05 6.90L22.05 6.90Q21.59 6.90 21.21 7.08Q20.84 7.26 20.57 7.58Q20.30 7.90 20.15 8.36Q20.00 8.83 20.00 9.40L20.00 9.40Q20.00 9.97 20.15 10.42Q20.30 10.88 20.56 11.21Q20.83 11.54 21.21 11.71Q21.59 11.89 22.07 11.89L22.07 11.89Q22.54 11.89 22.93 11.72Q23.31 11.55 23.58 11.21Q23.84 10.88 23.98 10.43Q24.12 9.98 24.12 9.41L24.12 9.41Q24.12 8.84 23.97 8.37Q23.82 7.91 23.55 7.58Q23.28 7.26 22.89 7.08Q22.51 6.90 22.05 6.90ZM31.95 6.34L31.95 8.24L31.31 8.24Q31.28 7.55 30.85 7.18Q30.43 6.81 29.62 6.81L29.62 6.81Q29.28 6.81 29.03 6.89Q28.77 6.97 28.60 7.11Q28.43 7.25 28.35 7.43Q28.27 7.61 28.27 7.80L28.27 7.80Q28.27 8.01 28.38 8.17Q28.49 8.33 28.70 8.46Q28.90 8.58 29.19 8.67Q29.47 8.77 29.81 8.86L29.81 8.86Q30.37 9.00 30.81 9.16Q31.26 9.32 31.57 9.53Q31.88 9.75 32.05 10.05Q32.22 10.36 32.22 10.80L32.22 10.80Q32.22 11.24 32.05 11.57Q31.87 11.91 31.54 12.14Q31.22 12.37 30.76 12.49Q30.30 12.61 29.74 12.61L29.74 12.61Q29.03 12.61 28.56 12.43Q28.09 12.26 27.79 11.89L27.79 11.89L27.72 12.46Q27.56 12.46 27.42 12.45Q27.28 12.45 27.12 12.46L27.12 12.46L27.12 10.43L27.78 10.43Q27.82 11.22 28.29 11.59Q28.77 11.96 29.59 11.96L29.59 11.96Q29.93 11.96 30.23 11.88Q30.52 11.81 30.72 11.69Q30.93 11.57 31.04 11.39Q31.16 11.21 31.16 10.96L31.16 10.96Q31.16 10.70 31.00 10.51Q30.84 10.33 30.57 10.19Q30.30 10.05 29.94 9.94Q29.58 9.84 29.18 9.72L29.18 9.72Q28.70 9.57 28.33 9.41Q27.97 9.25 27.72 9.04Q27.47 8.84 27.35 8.57Q27.23 8.29 27.23 7.92L27.23 7.92Q27.23 7.57 27.38 7.25Q27.54 6.94 27.82 6.70Q28.11 6.45 28.52 6.32Q28.92 6.19 29.43 6.19L29.43 6.19Q29.99 6.19 30.49 6.35Q30.99 6.51 31.29 6.83L31.29 6.83Q31.29 6.82 31.32 6.75Q31.34 6.68 31.37 6.59L31.37 6.59Q31.40 6.49 31.44 6.34L31.44 6.34Q31.56 6.35 31.67 6.35L31.67 6.35Q31.77 6.35 31.85 6.35Q31.92 6.34 31.95 6.34L31.95 6.34ZM34.30 4.79L35.17 4.61L35.17 6.34L36.81 6.34L36.81 6.95L35.18 6.95L35.18 10.38Q35.18 10.73 35.18 11.00Q35.19 11.28 35.25 11.48Q35.31 11.68 35.44 11.78Q35.57 11.89 35.81 11.89L35.81 11.89Q35.91 11.89 36.00 11.85Q36.10 11.81 36.17 11.72Q36.24 11.63 36.29 11.49Q36.33 11.35 36.33 11.15L36.33 11.15L36.96 11.09Q36.96 11.49 36.84 11.78Q36.73 12.07 36.54 12.25Q36.35 12.43 36.10 12.52Q35.85 12.61 35.57 12.61L35.57 12.61Q35.09 12.61 34.79 12.45Q34.49 12.29 34.33 12.01Q34.16 11.74 34.10 11.33Q34.04 10.93 34.04 10.44L34.04 10.44L34.04 6.95L32.92 6.95L32.92 6.41Q33.09 6.41 33.30 6.39Q33.51 6.37 33.70 6.36L33.70 6.36Q33.93 6.34 34.15 6.32L34.15 6.32Q34.16 6.27 34.17 6.14Q34.19 6.02 34.20 5.85Q34.21 5.68 34.23 5.50Q34.25 5.32 34.27 5.16Q34.28 5.01 34.29 4.90Q34.30 4.80 34.30 4.79L34.30 4.79ZM44.28 9.49L43.87 9.61L39.03 9.61Q39.03 10.16 39.20 10.58Q39.36 10.99 39.66 11.28Q39.96 11.57 40.38 11.73Q40.80 11.89 41.32 11.89L41.32 11.89Q42.03 11.89 42.56 11.59Q43.09 11.30 43.37 10.68L43.37 10.68L44.20 10.81Q43.89 11.68 43.10 12.14Q42.31 12.61 41.16 12.61L41.16 12.61Q40.39 12.61 39.77 12.37Q39.16 12.14 38.73 11.72Q38.30 11.29 38.08 10.72Q37.85 10.15 37.85 9.42L37.85 9.42Q37.85 8.68 38.08 8.09Q38.32 7.50 38.74 7.08Q39.16 6.65 39.76 6.42Q40.36 6.19 41.09 6.19L41.09 6.19Q41.83 6.19 42.42 6.41Q43.00 6.63 43.42 7.05Q43.83 7.48 44.05 8.09Q44.27 8.70 44.28 9.49L44.28 9.49ZM39.03 9.00L43.17 9.00Q43.09 7.96 42.55 7.43Q42.02 6.90 41.10 6.90L41.10 6.90Q40.67 6.90 40.32 7.04Q39.96 7.19 39.70 7.45Q39.43 7.72 39.26 8.10Q39.09 8.48 39.03 9.00L39.03 9.00ZM50.93 8.37L50.93 10.93Q50.93 11.29 50.96 11.47Q50.98 11.66 51.05 11.75Q51.12 11.83 51.25 11.84Q51.37 11.85 51.58 11.85L51.58 11.85L51.88 11.85L51.88 12.46Q51.34 12.46 50.81 12.47Q50.29 12.48 49.83 12.49L49.83 12.49L49.83 11.55Q49.42 12.08 48.85 12.34Q48.29 12.61 47.54 12.61L47.54 12.61Q47.04 12.61 46.65 12.47Q46.25 12.33 45.97 12.08Q45.69 11.83 45.54 11.49Q45.38 11.15 45.38 10.74L45.38 10.74Q45.38 10.30 45.56 9.94Q45.74 9.58 46.08 9.33Q46.42 9.08 46.91 8.94Q47.40 8.80 48.03 8.80L48.03 8.80Q48.46 8.80 48.90 8.86Q49.33 8.93 49.79 9.04L49.79 9.04L49.79 8.06Q49.79 7.44 49.37 7.11Q48.96 6.78 48.10 6.78L48.10 6.78Q47.39 6.78 46.98 7.06Q46.57 7.33 46.44 7.92L46.44 7.92L45.81 7.84L45.90 6.64Q46.33 6.44 46.92 6.31Q47.50 6.19 48.23 6.19L48.23 6.19Q48.96 6.19 49.47 6.32Q49.98 6.45 50.31 6.71Q50.63 6.98 50.78 7.39Q50.93 7.81 50.93 8.37L50.93 8.37ZM48.29 9.37L48.29 9.37Q47.88 9.37 47.55 9.46Q47.22 9.56 46.99 9.73Q46.76 9.90 46.64 10.14Q46.52 10.39 46.52 10.71L46.52 10.71Q46.52 10.99 46.62 11.20Q46.72 11.42 46.90 11.57Q47.08 11.72 47.33 11.81Q47.58 11.89 47.89 11.89L47.89 11.89Q48.21 11.89 48.55 11.79Q48.89 11.68 49.16 11.49Q49.44 11.29 49.61 11.00Q49.79 10.70 49.79 10.28L49.79 10.28L49.79 9.61Q49.38 9.50 49.01 9.43Q48.64 9.37 48.29 9.37ZM57.63 11.48L57.63 8.82Q57.63 8.37 57.59 8.01Q57.54 7.65 57.42 7.40Q57.29 7.14 57.05 7.02Q56.81 6.90 56.42 6.90L56.42 6.90Q56.09 6.90 55.83 6.99Q55.57 7.08 55.35 7.23Q55.13 7.38 54.94 7.57Q54.74 7.76 54.53 7.99L54.53 7.99L54.53 10.87Q54.53 11.26 54.53 11.46Q54.52 11.67 54.62 11.75Q54.71 11.84 54.92 11.85Q55.14 11.85 55.55 11.85L55.55 11.85L55.55 12.46Q55.37 12.46 55.20 12.46Q55.03 12.46 54.84 12.46Q54.66 12.46 54.46 12.46Q54.25 12.46 54.00 12.45L54.00 12.45Q53.50 12.45 53.12 12.46Q52.74 12.46 52.36 12.46L52.36 12.46L52.36 11.85Q52.73 11.85 52.94 11.83Q53.14 11.81 53.24 11.76Q53.33 11.72 53.35 11.65Q53.37 11.57 53.37 11.47L53.37 11.47L53.37 7.27Q53.37 7.16 53.32 7.09Q53.27 7.03 53.15 7.00Q53.03 6.97 52.85 6.96Q52.66 6.95 52.39 6.95L52.39 6.95L52.39 6.34Q52.53 6.34 52.66 6.35Q52.79 6.35 52.99 6.35L52.99 6.35Q53.35 6.35 53.72 6.34Q54.09 6.33 54.46 6.32L54.46 6.32L54.46 7.33Q54.91 6.79 55.52 6.49Q56.13 6.20 56.86 6.19L56.86 6.19Q57.47 6.19 57.94 6.49Q58.42 6.79 58.66 7.36L58.66 7.36Q59.16 6.80 59.77 6.49Q60.39 6.19 61.09 6.19L61.09 6.19Q61.71 6.20 62.09 6.41Q62.48 6.61 62.69 6.98Q62.90 7.35 62.97 7.87Q63.04 8.39 63.05 9.03L63.05 9.03L63.05 11.54Q63.05 11.66 63.10 11.71Q63.14 11.77 63.26 11.80Q63.37 11.83 63.55 11.83Q63.74 11.83 64.01 11.84L64.01 11.84L64.01 12.46Q63.63 12.46 63.25 12.46Q62.87 12.45 62.38 12.45L62.38 12.45Q62.14 12.45 61.94 12.45Q61.74 12.46 61.56 12.46Q61.39 12.46 61.22 12.46Q61.04 12.46 60.87 12.46L60.87 12.46L60.87 11.84Q61.16 11.83 61.36 11.82Q61.56 11.81 61.67 11.77Q61.79 11.74 61.84 11.67Q61.89 11.59 61.89 11.46L61.89 11.46L61.89 8.82Q61.89 8.33 61.84 7.97Q61.80 7.61 61.66 7.37Q61.53 7.12 61.29 7.01Q61.05 6.90 60.67 6.90L60.67 6.90Q60.33 6.90 60.07 7.00Q59.80 7.11 59.58 7.26Q59.35 7.42 59.16 7.60Q58.97 7.79 58.82 8.00L58.82 8.00Q58.80 8.25 58.80 8.50Q58.79 8.76 58.79 9.02L58.79 9.02L58.79 11.52Q58.79 11.64 58.83 11.71Q58.88 11.77 58.98 11.80Q59.09 11.83 59.28 11.84Q59.47 11.85 59.75 11.85L59.75 11.85L59.75 12.46Q59.58 12.46 59.42 12.46Q59.25 12.46 59.08 12.46Q58.91 12.46 58.71 12.46Q58.51 12.46 58.27 12.45L58.27 12.45Q58.02 12.45 57.80 12.45Q57.59 12.46 57.39 12.46Q57.19 12.46 57.00 12.46Q56.81 12.46 56.62 12.46L56.62 12.46L56.62 11.85Q56.91 11.85 57.10 11.84Q57.30 11.83 57.42 11.79Q57.54 11.75 57.59 11.68Q57.63 11.60 57.63 11.48L57.63 11.48ZM73.35 6.34L73.35 8.24L72.71 8.24Q72.68 7.55 72.25 7.18Q71.83 6.81 71.02 6.81L71.02 6.81Q70.68 6.81 70.42 6.89Q70.17 6.97 70 7.11Q69.83 7.25 69.75 7.43Q69.67 7.61 69.67 7.80L69.67 7.80Q69.67 8.01 69.78 8.17Q69.89 8.33 70.10 8.46Q70.30 8.58 70.58 8.67Q70.87 8.77 71.21 8.86L71.21 8.86Q71.76 9.00 72.21 9.16Q72.66 9.32 72.97 9.53Q73.28 9.75 73.45 10.05Q73.62 10.36 73.62 10.80L73.62 10.80Q73.62 11.24 73.45 11.57Q73.27 11.91 72.94 12.14Q72.62 12.37 72.16 12.49Q71.70 12.61 71.14 12.61L71.14 12.61Q70.43 12.61 69.96 12.43Q69.49 12.26 69.19 11.89L69.19 11.89L69.12 12.46Q68.96 12.46 68.82 12.45Q68.67 12.45 68.52 12.46L68.52 12.46L68.52 10.43L69.18 10.43Q69.22 11.22 69.69 11.59Q70.16 11.96 70.98 11.96L70.98 11.96Q71.33 11.96 71.62 11.88Q71.91 11.81 72.12 11.69Q72.32 11.57 72.44 11.39Q72.56 11.21 72.56 10.96L72.56 10.96Q72.56 10.70 72.40 10.51Q72.24 10.33 71.97 10.19Q71.70 10.05 71.34 9.94Q70.98 9.84 70.58 9.72L70.58 9.72Q70.10 9.57 69.73 9.41Q69.36 9.25 69.12 9.04Q68.87 8.84 68.75 8.57Q68.63 8.29 68.63 7.92L68.63 7.92Q68.63 7.57 68.78 7.25Q68.93 6.94 69.22 6.70Q69.51 6.45 69.91 6.32Q70.32 6.19 70.83 6.19L70.83 6.19Q71.39 6.19 71.89 6.35Q72.39 6.51 72.69 6.83L72.69 6.83Q72.69 6.82 72.72 6.75Q72.74 6.68 72.77 6.59L72.77 6.59Q72.80 6.49 72.84 6.34L72.84 6.34Q72.96 6.35 73.07 6.35L73.07 6.35Q73.17 6.35 73.24 6.35Q73.32 6.34 73.35 6.34L73.35 6.34ZM75.70 4.79L76.57 4.61L76.57 6.34L78.21 6.34L78.21 6.95L76.58 6.95L76.58 10.38Q76.58 10.73 76.58 11.00Q76.59 11.28 76.65 11.48Q76.71 11.68 76.84 11.78Q76.97 11.89 77.21 11.89L77.21 11.89Q77.31 11.89 77.40 11.85Q77.50 11.81 77.57 11.72Q77.64 11.63 77.69 11.49Q77.73 11.35 77.73 11.15L77.73 11.15L78.35 11.09Q78.35 11.49 78.24 11.78Q78.13 12.07 77.94 12.25Q77.75 12.43 77.50 12.52Q77.25 12.61 76.97 12.61L76.97 12.61Q76.49 12.61 76.19 12.45Q75.89 12.29 75.73 12.01Q75.56 11.74 75.50 11.33Q75.43 10.93 75.43 10.44L75.43 10.44L75.43 6.95L74.31 6.95L74.31 6.41Q74.48 6.41 74.70 6.39Q74.91 6.37 75.10 6.36L75.10 6.36Q75.33 6.34 75.55 6.32L75.55 6.32Q75.56 6.27 75.57 6.14Q75.58 6.02 75.60 5.85Q75.61 5.68 75.63 5.50Q75.65 5.32 75.67 5.16Q75.68 5.01 75.69 4.90Q75.70 4.80 75.70 4.79L75.70 4.79ZM81.92 12.61L81.92 12.61Q81.27 12.61 80.88 12.41Q80.49 12.21 80.28 11.82Q80.08 11.44 80.01 10.87Q79.95 10.31 79.95 9.58L79.95 9.58L79.95 7.41Q79.95 7.24 79.92 7.14Q79.88 7.05 79.78 7.01Q79.68 6.97 79.48 6.96Q79.29 6.95 78.97 6.95L78.97 6.95L78.97 6.36Q79.27 6.36 79.53 6.36Q79.79 6.36 80.04 6.35Q80.29 6.35 80.54 6.34Q80.80 6.33 81.09 6.32L81.09 6.32L81.09 9.93Q81.09 10.36 81.13 10.73Q81.17 11.09 81.30 11.35Q81.42 11.61 81.66 11.75Q81.89 11.89 82.29 11.89L82.29 11.89Q82.66 11.89 82.97 11.81Q83.28 11.73 83.54 11.58Q83.79 11.44 83.98 11.23Q84.17 11.03 84.30 10.81L84.30 10.81Q84.31 10.55 84.31 10.31Q84.31 10.06 84.31 9.80L84.31 9.80L84.31 7.44Q84.31 7.26 84.28 7.16Q84.25 7.06 84.15 7.01Q84.04 6.97 83.84 6.96Q83.64 6.95 83.31 6.95L83.31 6.95L83.31 6.36Q83.83 6.36 84.37 6.35Q84.92 6.34 85.46 6.31L85.46 6.31L85.46 11.50Q85.46 11.63 85.50 11.70Q85.53 11.77 85.64 11.81Q85.74 11.84 85.93 11.85Q86.13 11.85 86.44 11.85L86.44 11.85L86.44 12.46Q85.83 12.46 85.33 12.47Q84.83 12.48 84.36 12.49L84.36 12.49L84.36 11.57Q83.89 12.09 83.27 12.35Q82.65 12.61 81.92 12.61ZM93.63 3.60L93.63 11.59Q93.63 11.68 93.68 11.73Q93.72 11.79 93.83 11.81Q93.95 11.84 94.14 11.85Q94.34 11.85 94.64 11.85L94.64 11.85L94.64 12.46Q94.10 12.46 93.57 12.47Q93.03 12.48 92.54 12.49L92.54 12.49Q92.54 12.48 92.54 12.35Q92.54 12.21 92.54 12.03Q92.54 11.85 92.54 11.68Q92.54 11.50 92.53 11.42L92.53 11.42Q92.14 12.00 91.56 12.30Q90.97 12.61 90.21 12.61L90.21 12.61Q89.54 12.61 88.99 12.38Q88.44 12.15 88.05 11.73Q87.66 11.31 87.45 10.73Q87.23 10.14 87.23 9.42L87.23 9.42Q87.23 8.69 87.45 8.09Q87.66 7.49 88.06 7.08Q88.46 6.66 89.01 6.42Q89.56 6.19 90.23 6.19L90.23 6.19Q90.97 6.19 91.53 6.48Q92.10 6.77 92.47 7.30L92.47 7.30L92.48 4.51Q92.48 4.41 92.43 4.36Q92.37 4.31 92.23 4.28Q92.10 4.25 91.89 4.25Q91.68 4.25 91.38 4.25L91.38 4.25L91.38 3.62Q91.98 3.62 92.56 3.62Q93.13 3.61 93.63 3.60L93.63 3.60ZM90.45 6.90L90.45 6.90Q89.99 6.90 89.61 7.08Q89.24 7.26 88.97 7.58Q88.70 7.90 88.55 8.36Q88.40 8.83 88.40 9.40L88.40 9.40Q88.40 9.97 88.55 10.42Q88.70 10.88 88.96 11.21Q89.23 11.54 89.61 11.71Q90.00 11.89 90.47 11.89L90.47 11.89Q90.95 11.89 91.33 11.72Q91.71 11.55 91.98 11.21Q92.24 10.88 92.38 10.43Q92.52 9.98 92.52 9.41L92.52 9.41Q92.52 8.84 92.37 8.37Q92.22 7.91 91.95 7.58Q91.68 7.26 91.29 7.08Q90.91 6.90 90.45 6.90ZM96.71 3.47L96.71 3.47Q97.06 3.47 97.25 3.64Q97.45 3.81 97.45 4.10L97.45 4.10Q97.45 4.40 97.26 4.58Q97.06 4.75 96.71 4.75L96.71 4.75Q96.37 4.75 96.18 4.58Q95.99 4.41 95.99 4.10L95.99 4.10Q95.99 3.81 96.18 3.64Q96.37 3.47 96.71 3.47ZM97.43 6.31L97.43 11.40Q97.43 11.56 97.49 11.65Q97.54 11.74 97.67 11.79Q97.79 11.83 97.98 11.84Q98.18 11.85 98.46 11.85L98.46 11.85L98.46 12.46Q98.28 12.46 97.98 12.46Q97.68 12.46 97.38 12.46Q97.08 12.46 96.84 12.45Q96.61 12.45 96.57 12.45L96.57 12.45Q96.18 12.45 95.88 12.46Q95.59 12.46 95.27 12.46L95.27 12.46L95.27 11.85Q95.64 11.85 95.85 11.83Q96.05 11.81 96.15 11.76Q96.25 11.72 96.27 11.63Q96.28 11.55 96.28 11.41L96.28 11.41L96.28 7.20Q96.28 7.10 96.23 7.05Q96.18 7.01 96.07 6.98Q95.95 6.96 95.76 6.96Q95.57 6.95 95.31 6.95L95.31 6.95L95.31 6.34Q95.89 6.34 96.40 6.34Q96.91 6.33 97.43 6.31L97.43 6.31ZM102.51 6.19L102.51 6.19Q103.23 6.19 103.83 6.41Q104.43 6.64 104.87 7.06Q105.30 7.49 105.54 8.09Q105.78 8.69 105.78 9.41L105.78 9.41Q105.78 10.10 105.54 10.69Q105.30 11.29 104.87 11.72Q104.44 12.14 103.84 12.37Q103.24 12.61 102.51 12.61L102.51 12.61Q101.79 12.61 101.19 12.38Q100.59 12.15 100.16 11.72Q99.73 11.29 99.49 10.69Q99.26 10.10 99.26 9.41L99.26 9.41Q99.26 8.69 99.50 8.09Q99.74 7.49 100.17 7.06Q100.60 6.64 101.20 6.41Q101.79 6.19 102.51 6.19ZM102.51 6.90L102.51 6.90Q102.03 6.90 101.65 7.08Q101.27 7.25 101.00 7.57Q100.73 7.90 100.58 8.36Q100.44 8.83 100.44 9.40L100.44 9.40Q100.44 9.93 100.59 10.40Q100.73 10.87 101.00 11.20Q101.27 11.53 101.66 11.71Q102.04 11.89 102.51 11.89L102.51 11.89Q102.98 11.89 103.37 11.71Q103.75 11.53 104.02 11.20Q104.30 10.87 104.44 10.40Q104.59 9.93 104.59 9.40L104.59 9.40Q104.59 8.84 104.44 8.37Q104.30 7.90 104.03 7.57Q103.76 7.25 103.37 7.08Q102.98 6.90 102.51 6.90Z"></path></g><!----><g data-v-423bf9ae="" id="71cbaad4-608f-410d-b554-b0259c65391d" transform="matrix(1.3235293626785278,0,0,1.3235293626785278,-21.183349609375,-20.163164138793945)" stroke="none" fill="black"><path d="M25.978 74.001c13.279 13.277 34.808 13.277 48.085.001 13.277-13.279 13.277-34.807 0-48.086-13.278-13.277-34.806-13.276-48.085.002-13.278 13.277-13.276 34.805 0 48.083zM67.335 35.95c.007.055.016.109.02.164.01.101.015.206.015.314l.001.01v24.026a3.825 3.825 0 01-7.652.002l.001-14.796-20.518 20.518a3.827 3.827 0 01-5.41-5.411L54.31 40.26H39.516a3.825 3.825 0 11-.003-7.65h24.031c.114 0 .221.005.326.017.045.002.091.008.135.013a.919.919 0 01.105.017 3.803 3.803 0 013.214 3.215c.004.026.006.052.011.078z"></path></g><!----></svg>